<svg version="1.1" id="Layer_1" xmlns="http://www.w3.org/2000/svg" xmlns:xlink="http://www.w3.org/1999/xlink" x="0px" y="0px"
	 width="100%" viewBox="0 0 256 256" enable-background="new 0 0 256 256" xml:space="preserve">
<path fill="#000000" opacity="1.000000" stroke="none" 
	d="
M113.000000,1.000000 
	C123.354225,1.000000 133.708450,1.000000 144.676361,1.392371 
	C147.851486,2.189311 150.409363,2.618101 152.974930,2.994541 
	C170.301956,5.536899 185.895950,12.642383 200.356323,22.058680 
	C213.039185,30.317505 223.866623,40.786522 232.713928,53.196804 
	C241.350174,65.311066 248.295853,78.233162 252.004196,92.734016 
	C253.727936,99.474388 255.338257,106.243774 257.000000,113.000000 
	C257.000000,123.354225 257.000000,133.708450 256.607635,144.676376 
	C255.810699,147.851471 255.381927,150.409332 255.005493,152.974869 
	C252.463104,170.301895 245.357666,185.895920 235.941360,200.356293 
	C227.682541,213.039154 217.213501,223.866592 204.803253,232.713913 
	C192.688995,241.350220 179.766861,248.295822 165.266006,252.004166 
	C158.525620,253.727921 151.756241,255.338242 145.000000,257.000000 
	C134.645767,257.000000 124.291542,257.000000 113.323624,256.607605 
	C110.148521,255.810684 107.590660,255.381912 105.025131,255.005478 
	C87.698105,252.463120 72.104088,245.357635 57.643723,235.941360 
	C44.960854,227.682541 34.133396,217.213531 25.286083,204.803253 
	C16.649799,192.688995 9.704165,179.766891 5.995813,165.266006 
	C4.272073,158.525635 2.661740,151.756241 1.000000,145.000000 
	C1.000000,134.645767 1.000000,124.291542 1.392372,113.323624 
	C2.189312,110.148491 2.618099,107.590599 2.994540,105.025024 
	C5.536889,87.697998 12.642402,72.104012 22.058689,57.643658 
	C30.317511,44.960793 40.786522,34.133339 53.196800,25.286053 
	C65.311058,16.649797 78.233154,9.704149 92.734009,5.995810 
	C99.474388,4.272075 106.243767,2.661740 113.000000,1.000000 
M122.401268,98.136314 
	C138.771072,94.663612 155.140884,91.190910 171.555786,87.708641 
	C171.555786,102.939339 171.555786,117.630058 171.555786,132.586823 
	C160.094467,130.882278 149.901733,131.923752 141.686768,140.730042 
	C132.958908,150.086136 136.148605,164.805450 146.622849,169.407623 
	C152.808640,172.125519 158.706451,173.630325 165.270523,171.994888 
	C176.388428,169.224854 185.855881,161.231659 185.947525,149.450806 
	C186.126373,126.459976 186.026535,103.466721 185.982559,80.474579 
	C185.970566,74.210251 181.596878,70.824532 175.646805,72.087105 
	C158.302689,75.767464 140.941864,79.369095 123.588570,83.006302 
	C120.274895,83.700836 116.817299,84.027275 113.690811,85.218376 
	C109.468430,86.826981 106.900299,89.848648 106.944077,94.896309 
	C107.091179,111.856773 107.000000,128.819321 107.000000,145.793900 
	C106.117554,145.890961 105.602684,146.090866 105.174591,145.973694 
	C95.406387,143.300186 87.108810,146.606613 79.349083,152.227966 
	C74.256538,155.917145 70.926285,165.790482 72.964706,171.781418 
	C75.602089,179.532730 81.366615,183.665878 89.087593,185.652771 
	C98.338905,188.033447 110.344658,183.543213 116.568245,176.139847 
	C120.796944,171.109528 121.823784,165.367599 121.901802,159.449234 
	C122.167503,139.292892 122.018013,119.131065 122.401268,98.136314 
z"/>
<path fill="#FFFFFF" opacity="1.000000" stroke="none" 
	d="
M112.531342,1.000000 
	C106.243767,2.661740 99.474388,4.272075 92.734009,5.995810 
	C78.233154,9.704149 65.311058,16.649797 53.196800,25.286053 
	C40.786522,34.133339 30.317511,44.960793 22.058689,57.643658 
	C12.642402,72.104012 5.536889,87.697998 2.994540,105.025024 
	C2.618099,107.590599 2.189312,110.148491 1.392372,112.854965 
	C1.000000,75.739716 1.000000,38.479435 1.000000,1.000000 
	C38.020607,1.000000 75.041641,1.000000 112.531342,1.000000 
z"/>
<path fill="#FFFFFF" opacity="1.000000" stroke="none" 
	d="
M257.000000,112.531342 
	C255.338257,106.243774 253.727936,99.474388 252.004196,92.734016 
	C248.295853,78.233162 241.350174,65.311066 232.713928,53.196804 
	C223.866623,40.786522 213.039185,30.317505 200.356323,22.058680 
	C185.895950,12.642383 170.301956,5.536899 152.974930,2.994541 
	C150.409363,2.618101 147.851486,2.189311 145.145020,1.392371 
	C182.260269,1.000000 219.520554,1.000000 257.000000,1.000000 
	C257.000000,38.020607 257.000000,75.041641 257.000000,112.531342 
z"/>
<path fill="#FFFFFF" opacity="1.000000" stroke="none" 
	d="
M1.000000,145.468658 
	C2.661740,151.756241 4.272073,158.525635 5.995813,165.266006 
	C9.704165,179.766891 16.649799,192.688995 25.286083,204.803253 
	C34.133396,217.213531 44.960854,227.682541 57.643723,235.941360 
	C72.104088,245.357635 87.698105,252.463120 105.025131,255.005478 
	C107.590660,255.381912 110.148521,255.810684 112.854965,256.607605 
	C75.739716,257.000000 38.479424,257.000000 1.000000,257.000000 
	C1.000000,219.979401 1.000000,182.958359 1.000000,145.468658 
z"/>
<path fill="#FFFFFF" opacity="1.000000" stroke="none" 
	d="
M145.468658,257.000000 
	C151.756241,255.338242 158.525620,253.727921 165.266006,252.004166 
	C179.766861,248.295822 192.688995,241.350220 204.803253,232.713913 
	C217.213501,223.866592 227.682541,213.039154 235.941360,200.356293 
	C245.357666,185.895920 252.463104,170.301895 255.005493,152.974869 
	C255.381927,150.409332 255.810699,147.851471 256.607635,145.145035 
	C257.000000,182.260284 257.000000,219.520569 257.000000,257.000000 
	C219.979401,257.000000 182.958359,257.000000 145.468658,257.000000 
z"/>
<path fill="#FFFFFF" opacity="1.000000" stroke="none" 
	d="
M122.214142,98.553818 
	C122.018013,119.131065 122.167503,139.292892 121.901802,159.449234 
	C121.823784,165.367599 120.796944,171.109528 116.568245,176.139847 
	C110.344658,183.543213 98.338905,188.033447 89.087593,185.652771 
	C81.366615,183.665878 75.602089,179.532730 72.964706,171.781418 
	C70.926285,165.790482 74.256538,155.917145 79.349083,152.227966 
	C87.108810,146.606613 95.406387,143.300186 105.174591,145.973694 
	C105.602684,146.090866 106.117554,145.890961 107.000000,145.793900 
	C107.000000,128.819321 107.091179,111.856773 106.944077,94.896309 
	C106.900299,89.848648 109.468430,86.826981 113.690811,85.218376 
	C116.817299,84.027275 120.274895,83.700836 123.588570,83.006302 
	C140.941864,79.369095 158.302689,75.767464 175.646805,72.087105 
	C181.596878,70.824532 185.970566,74.210251 185.982559,80.474579 
	C186.026535,103.466721 186.126373,126.459976 185.947525,149.450806 
	C185.855881,161.231659 176.388428,169.224854 165.270523,171.994888 
	C158.706451,173.630325 152.808640,172.125519 146.622849,169.407623 
	C136.148605,164.805450 132.958908,150.086136 141.686768,140.730042 
	C149.901733,131.923752 160.094467,130.882278 171.555786,132.586823 
	C171.555786,117.630058 171.555786,102.939339 171.555786,87.708641 
	C155.140884,91.190910 138.771072,94.663612 122.214142,98.553818 
z"/>
</svg>