<svg version="1.1" id="Layer_1" xmlns="http://www.w3.org/2000/svg" xmlns:xlink="http://www.w3.org/1999/xlink" x="0px" y="0px"
	 width="100%" viewBox="0 0 1024 1024" enable-background="new 0 0 1024 1024" xml:space="preserve">
<path fill="#FFFFFF" opacity="1.000000" stroke="none" 
	d="
M647.000000,1025.000000 
	C431.333344,1025.000000 216.166672,1025.000000 1.000000,1025.000000 
	C1.000000,683.666687 1.000000,342.333344 1.000000,1.000000 
	C342.333344,1.000000 683.666687,1.000000 1025.000000,1.000000 
	C1025.000000,342.333344 1025.000000,683.666687 1025.000000,1025.000000 
	C899.166687,1025.000000 773.333313,1025.000000 647.000000,1025.000000 
M65.000000,510.500000 
	C65.000000,585.926025 65.000000,661.352051 65.000000,736.711670 
	C86.643059,736.711670 107.714745,736.711670 128.714951,736.711670 
	C128.714951,587.356384 128.714951,438.289703 128.714951,289.288361 
	C107.356964,289.288361 86.285271,289.288361 65.000000,289.288361 
	C65.000000,362.884338 65.000000,436.192169 65.000000,510.500000 
M193.000000,513.500000 
	C193.000000,587.926086 193.000000,662.352234 193.000000,736.711548 
	C214.643326,736.711548 235.715012,736.711548 256.714874,736.711548 
	C256.714874,587.356201 256.714874,438.289490 256.714874,289.288452 
	C235.356812,289.288452 214.285110,289.288452 193.000000,289.288452 
	C193.000000,363.884430 193.000000,438.192230 193.000000,513.500000 
M385.000000,644.500000 
	C385.000000,526.075684 385.000000,407.651306 385.000000,289.286133 
	C363.361450,289.286133 342.289795,289.286133 321.282837,289.286133 
	C321.282837,438.639130 321.282837,587.705811 321.282837,736.713867 
	C342.638550,736.713867 363.710205,736.713867 385.000000,736.713867 
	C385.000000,706.118835 385.000000,675.809448 385.000000,644.500000 
M513.000000,645.500000 
	C513.000000,526.742371 513.000000,407.984711 513.000000,289.286072 
	C491.361542,289.286072 470.289886,289.286072 449.282776,289.286072 
	C449.282776,438.639038 449.282776,587.705750 449.282776,736.713867 
	C470.638489,736.713867 491.710144,736.713867 513.000000,736.713867 
	C513.000000,706.452209 513.000000,676.476135 513.000000,645.500000 
M588.517212,289.000000 
	C584.745850,289.000000 580.974487,289.000000 577.286072,289.000000 
	C577.286072,310.638275 577.286072,331.709991 577.286072,352.716248 
	C715.973083,352.716248 854.373779,352.716248 992.712830,352.716248 
	C992.712830,331.359497 992.712830,310.287781 992.712830,289.000000 
	C858.120850,289.000000 723.815979,289.000000 588.517212,289.000000 
M592.503296,417.000000 
	C587.403809,417.000000 582.304382,417.000000 577.290771,417.000000 
	C577.290771,438.648041 577.290771,459.719757 577.290771,480.712219 
	C715.982056,480.712219 854.382324,480.712219 992.708984,480.712219 
	C992.708984,459.351471 992.708984,438.279755 992.708984,417.000000 
	C859.445984,417.000000 726.473877,417.000000 592.503296,417.000000 
M577.000000,559.504761 
	C577.000000,575.934143 577.000000,592.363525 577.000000,608.712952 
	C715.980225,608.712952 854.380615,608.712952 992.709656,608.712952 
	C992.709656,587.352966 992.709656,566.281250 992.709656,545.287598 
	C854.018677,545.287598 715.618286,545.287598 577.000000,545.287598 
	C577.000000,549.884888 577.000000,554.196411 577.000000,559.504761 
M993.000000,718.499390 
	C993.000000,703.402771 993.000000,688.306152 993.000000,673.285217 
	C854.022949,673.285217 715.622803,673.285217 577.288452,673.285217 
	C577.288452,694.643311 577.288452,715.714966 577.288452,736.714722 
	C715.977234,736.714722 854.377441,736.714722 993.000000,736.714722 
	C993.000000,730.786987 993.000000,725.142883 993.000000,718.499390 
z"/>
<path fill="#000000" opacity="1.000000" stroke="none" 
	d="
M65.000000,510.000000 
	C65.000000,436.192169 65.000000,362.884338 65.000000,289.288361 
	C86.285271,289.288361 107.356964,289.288361 128.714951,289.288361 
	C128.714951,438.289703 128.714951,587.356384 128.714951,736.711670 
	C107.714745,736.711670 86.643059,736.711670 65.000000,736.711670 
	C65.000000,661.352051 65.000000,585.926025 65.000000,510.000000 
z"/>
<path fill="#000000" opacity="1.000000" stroke="none" 
	d="
M193.000000,513.000000 
	C193.000000,438.192230 193.000000,363.884430 193.000000,289.288452 
	C214.285110,289.288452 235.356812,289.288452 256.714874,289.288452 
	C256.714874,438.289490 256.714874,587.356201 256.714874,736.711548 
	C235.715012,736.711548 214.643326,736.711548 193.000000,736.711548 
	C193.000000,662.352234 193.000000,587.926086 193.000000,513.000000 
z"/>
<path fill="#000000" opacity="1.000000" stroke="none" 
	d="
M385.000000,645.000000 
	C385.000000,675.809448 385.000000,706.118835 385.000000,736.713867 
	C363.710205,736.713867 342.638550,736.713867 321.282837,736.713867 
	C321.282837,587.705811 321.282837,438.639130 321.282837,289.286133 
	C342.289795,289.286133 363.361450,289.286133 385.000000,289.286133 
	C385.000000,407.651306 385.000000,526.075684 385.000000,645.000000 
z"/>
<path fill="#000000" opacity="1.000000" stroke="none" 
	d="
M513.000000,646.000000 
	C513.000000,676.476135 513.000000,706.452209 513.000000,736.713867 
	C491.710144,736.713867 470.638489,736.713867 449.282776,736.713867 
	C449.282776,587.705750 449.282776,438.639038 449.282776,289.286072 
	C470.289886,289.286072 491.361542,289.286072 513.000000,289.286072 
	C513.000000,407.984711 513.000000,526.742371 513.000000,646.000000 
z"/>
<path fill="#000000" opacity="1.000000" stroke="none" 
	d="
M589.014160,289.000000 
	C723.815979,289.000000 858.120850,289.000000 992.712830,289.000000 
	C992.712830,310.287781 992.712830,331.359497 992.712830,352.716248 
	C854.373779,352.716248 715.973083,352.716248 577.286072,352.716248 
	C577.286072,331.709991 577.286072,310.638275 577.286072,289.000000 
	C580.974487,289.000000 584.745850,289.000000 589.014160,289.000000 
z"/>
<path fill="#000000" opacity="1.000000" stroke="none" 
	d="
M593.002563,417.000000 
	C726.473877,417.000000 859.445984,417.000000 992.708984,417.000000 
	C992.708984,438.279755 992.708984,459.351471 992.708984,480.712219 
	C854.382324,480.712219 715.982056,480.712219 577.290771,480.712219 
	C577.290771,459.719757 577.290771,438.648041 577.290771,417.000000 
	C582.304382,417.000000 587.403809,417.000000 593.002563,417.000000 
z"/>
<path fill="#000000" opacity="1.000000" stroke="none" 
	d="
M577.000000,559.006348 
	C577.000000,554.196411 577.000000,549.884888 577.000000,545.287598 
	C715.618286,545.287598 854.018677,545.287598 992.709656,545.287598 
	C992.709656,566.281250 992.709656,587.352966 992.709656,608.712952 
	C854.380615,608.712952 715.980225,608.712952 577.000000,608.712952 
	C577.000000,592.363525 577.000000,575.934143 577.000000,559.006348 
z"/>
<path fill="#000000" opacity="1.000000" stroke="none" 
	d="
M993.000000,718.999084 
	C993.000000,725.142883 993.000000,730.786987 993.000000,736.714722 
	C854.377441,736.714722 715.977234,736.714722 577.288452,736.714722 
	C577.288452,715.714966 577.288452,694.643311 577.288452,673.285217 
	C715.622803,673.285217 854.022949,673.285217 993.000000,673.285217 
	C993.000000,688.306152 993.000000,703.402771 993.000000,718.999084 
z"/>
</svg>